<svg xmlns="http://www.w3.org/2000/svg" width="500" height="499" viewBox="0 0 500 499" version="1.1">
	<path d="M 267.445 11.006 C 261.997 16.509, 257.226 21.861, 256.842 22.898 C 256.458 23.936, 252.825 30.121, 248.769 36.643 C 222.660 78.624, 212.356 106.039, 209.035 142.366 C 207.606 157.993, 210.268 212.777, 214.136 247.372 L 215.239 257.244 193.226 279.372 C 181.118 291.542, 170.757 302.402, 170.202 303.505 C 168.821 306.247, 174.115 364.229, 175.949 366.438 C 178.921 370.020, 183.325 368.410, 203.129 356.500 C 213.646 350.175, 222.656 345, 223.151 345 C 223.645 345, 224.320 346.352, 224.651 348.004 C 224.981 349.657, 226.589 352.316, 228.222 353.913 C 230.653 356.289, 231.724 358.972, 234.112 368.659 C 238.958 388.314, 239.957 390.347, 246.418 393.708 C 251.208 396.199, 263.698 397.929, 277 397.945 C 297.165 397.969, 308.052 395.813, 313.639 390.690 C 316.797 387.794, 317.484 386.085, 321.095 372.137 C 324.438 359.223, 325.552 356.294, 328.086 353.760 C 329.744 352.102, 331.359 349.453, 331.675 347.873 C 331.991 346.293, 332.437 345, 332.665 345 C 333.779 345, 342.337 349.875, 356.465 358.557 C 372.066 368.146, 376.247 369.700, 379.401 367.082 C 381.441 365.389, 381.643 364.038, 384.538 332.782 C 386.275 314.023, 386.790 304.488, 386.131 303.282 C 385.595 302.302, 375.640 292.050, 364.009 280.500 C 352.378 268.950, 342.472 258.796, 341.995 257.935 C 341.480 257.006, 342.089 245.012, 343.493 228.435 C 347.450 181.727, 348.519 155.958, 347.107 141.388 C 344.004 109.386, 334.003 81.142, 313.861 47.500 C 304.265 31.470, 280.790 1, 278.038 1 C 277.659 1, 272.892 5.503, 267.445 11.006 M 270.473 30.250 C 255.092 49.441, 239.573 77.317, 232.131 99.124 C 223.320 124.940, 221.028 144.292, 222.817 177.759 C 224.593 210.999, 228.486 257.875, 233.011 300.500 C 234.120 310.950, 235.505 324.450, 236.088 330.500 C 236.670 336.550, 237.677 342.611, 238.324 343.969 C 240.776 349.117, 255.156 352.002, 278.322 351.996 C 298.158 351.991, 314.300 349.045, 317.712 344.808 C 319.270 342.874, 327.510 260.850, 331.004 212.500 C 331.601 204.250, 332.519 191.979, 333.044 185.231 C 336.482 141.095, 331.056 110.332, 313.514 74.500 C 302.572 52.150, 282.505 23, 278.061 23 C 277.057 23, 273.759 26.151, 270.473 30.250 M 268 119.269 C 250.461 125.439, 240.389 141.309, 243.147 158.431 C 245.064 170.335, 252.511 180.004, 263.849 185.310 C 283.808 194.651, 306.902 183.158, 312.562 161.066 C 314.608 153.076, 313.876 146.348, 310.092 138.388 C 306.780 131.422, 299.094 123.855, 292.259 120.831 C 286.492 118.280, 273.237 117.426, 268 119.269 M 270.748 132.370 C 259.383 136.597, 253.706 147.733, 256.970 159.393 C 261.426 175.307, 281.393 180.284, 293.617 168.527 C 303.403 159.116, 301.357 141.396, 289.695 134.561 C 284.347 131.427, 275.908 130.451, 270.748 132.370 M 339.694 276.698 C 339.426 277.139, 338.897 281.100, 338.518 285.500 C 338.140 289.900, 336.969 301.261, 335.915 310.747 C 334.862 320.233, 334 328.393, 334 328.880 C 334 329.367, 336.813 331.458, 340.250 333.526 C 358.645 344.593, 368.308 350.025, 368.774 349.559 C 369.749 348.585, 372.635 309.507, 371.844 308 C 370.862 306.130, 352.291 286.928, 345.341 280.596 C 342.504 278.011, 339.962 276.257, 339.694 276.698 M 198.876 292.750 L 183.334 308.500 184.717 324.500 C 186.814 348.763, 186.882 349.168, 188.820 348.810 C 189.744 348.640, 197.588 344.253, 206.250 339.062 C 219.330 331.224, 222 329.232, 222 327.309 C 222 326.036, 221.139 317.233, 220.086 307.747 C 219.033 298.261, 217.872 287.462, 217.506 283.750 C 217.087 279.499, 216.393 277, 215.630 277 C 214.964 277, 207.424 284.087, 198.876 292.750 M 247.567 366.615 C 247.957 368.752, 249.017 372.975, 249.922 376 C 251.498 381.263, 251.762 381.550, 256.034 382.670 C 261.604 384.128, 290.861 384.350, 298.114 382.989 C 301.076 382.433, 304.036 381.259, 304.691 380.379 C 306.093 378.495, 309.595 364.262, 308.842 363.508 C 308.557 363.223, 305.888 363.458, 302.912 364.028 C 289.962 366.512, 259.149 366.137, 249.179 363.373 C 246.962 362.759, 246.890 362.903, 247.567 366.615 M 298.073 408.088 C 295.637 408.565, 293.327 409.470, 292.939 410.098 C 292.087 411.478, 293.989 419.836, 297.452 429.925 C 300.695 439.374, 300.694 444.967, 297.449 451.937 C 293.317 460.815, 280.872 476.999, 278.176 477 C 275 477.001, 260.026 458.161, 257.490 450.972 C 255.408 445.070, 255.612 441.535, 258.622 431.362 C 261.742 420.818, 264.205 409.872, 263.595 409.262 C 263.355 409.021, 260.481 408.582, 257.209 408.285 L 251.260 407.746 250.002 413.123 C 249.310 416.080, 247.676 421.167, 246.370 424.426 C 237.627 446.258, 242.872 462.367, 266.725 486.937 L 277.950 498.500 288.975 487.517 C 295.039 481.476, 300 476.141, 300 475.661 C 300 475.181, 301.291 473.148, 302.869 471.144 C 306.973 465.932, 310.799 457.947, 312.646 450.736 C 314.782 442.401, 313.989 435.018, 309.441 420.874 C 307.429 414.618, 305.621 408.938, 305.423 408.250 C 305.022 406.857, 304.413 406.844, 298.073 408.088 M 1.762 498.707 C 3.006 498.946, 4.806 498.937, 5.762 498.687 C 6.718 498.437, 5.700 498.241, 3.500 498.252 C 1.300 498.263, 0.518 498.468, 1.762 498.707 M 12.750 498.737 C 15.638 498.939, 20.363 498.939, 23.250 498.737 C 26.138 498.535, 23.775 498.370, 18 498.370 C 12.225 498.370, 9.863 498.535, 12.750 498.737 " stroke="none" fill="yellow" fill-rule="evenodd"/>
</svg>