<?xml version="1.0" standalone="no"?>
<!DOCTYPE svg PUBLIC "-//W3C//DTD SVG 20010904//EN"
 "http://www.w3.org/TR/2001/REC-SVG-20010904/DTD/svg10.dtd">
<svg version="1.0" xmlns="http://www.w3.org/2000/svg"
 width="686.000000pt" height="675.000000pt" viewBox="0 0 686.000000 675.000000"
 preserveAspectRatio="xMidYMid meet">
<metadata>
Created by potrace 1.16, written by Peter Selinger 2001-2019
</metadata>
<g transform="translate(0.000000,675.000000) scale(0.100000,-0.100000)"
fill="yellow" stroke="none">
<path d="M3090 6684 c-571 -37 -1193 -258 -1650 -587 -303 -217 -521 -431
-750 -735 -608 -808 -804 -1883 -523 -2875 76 -268 207 -566 361 -820 79 -130
243 -354 343 -467 657 -747 1576 -1154 2542 -1127 699 20 1337 242 1892 660
297 224 547 491 764 815 92 138 83 133 210 111 40 -7 72 -19 83 -30 18 -21 83
-23 248 -10 l85 7 -39 17 c-21 9 -42 17 -46 17 -4 0 -55 15 -114 34 -88 28
-108 31 -114 20 -7 -13 -20 -13 -95 -1 -48 8 -90 16 -92 19 -3 3 26 65 63 139
145 285 252 598 307 899 62 336 72 765 25 1085 -29 197 -43 277 -60 335 -181
617 -345 933 -715 1375 -149 177 -346 356 -573 518 -86 61 -142 97 -297 189
-49 29 -177 93 -320 158 -252 116 -684 223 -1010 250 -108 9 -411 11 -525 4z
m505 -44 c237 -21 510 -74 735 -146 810 -255 1518 -858 1894 -1611 177 -354
276 -677 332 -1088 25 -182 26 -638 1 -810 -60 -416 -162 -749 -331 -1082 -95
-187 -62 -169 -262 -138 -170 27 -423 65 -436 65 -18 0 -6 20 11 20 22 0 279
57 291 65 16 10 -2 45 -24 45 -11 0 -86 -14 -166 -30 -80 -16 -146 -30 -147
-30 -1 0 0 7 4 15 3 9 -2 24 -11 34 -14 16 -27 18 -75 14 -56 -5 -58 -5 -57
18 1 13 10 29 21 34 11 6 25 20 31 33 6 12 19 31 29 42 18 20 18 21 -6 46
l-26 25 -51 -32 c-33 -20 -52 -39 -52 -51 0 -10 -11 -24 -26 -30 -18 -8 -24
-17 -20 -30 20 -61 21 -58 -17 -58 -30 0 -37 -4 -48 -33 l-14 -33 -105 17
c-122 20 -251 47 -257 53 -3 2 33 48 78 102 136 162 260 369 337 564 52 132
112 342 123 430 18 148 23 446 9 555 -42 346 -150 645 -329 913 -330 493 -831
809 -1420 897 -210 31 -508 17 -739 -35 -514 -114 -983 -449 -1264 -902 -202
-326 -295 -648 -305 -1053 -5 -210 5 -315 47 -505 154 -691 678 -1272 1345
-1492 401 -132 834 -136 1235 -12 124 39 138 44 278 110 172 81 348 198 485
324 l58 53 172 -32 c95 -18 195 -37 222 -42 42 -8 52 -14 64 -40 10 -23 10
-33 1 -44 -15 -19 -3 -37 20 -30 12 4 23 -1 32 -13 34 -49 126 -89 143 -62 10
16 22 12 28 -11 5 -17 11 -19 41 -14 30 6 41 3 67 -19 25 -21 34 -24 45 -15
13 10 11 16 -8 37 l-23 25 23 -12 c18 -10 27 -10 38 -1 20 17 13 24 -76 72
-118 64 -105 79 48 55 201 -33 350 -56 430 -68 45 -7 82 -16 82 -21 0 -16
-138 -217 -224 -326 -172 -220 -365 -409 -593 -580 -483 -364 -985 -564 -1611
-642 -120 -15 -563 -15 -684 0 -684 83 -1270 343 -1774 786 -223 196 -440 446
-605 699 -193 295 -351 663 -433 1010 -43 182 -50 221 -77 435 -16 122 -15
547 1 682 92 787 420 1458 972 1993 146 142 160 154 319 274 483 364 1076 585
1699 634 103 8 393 6 505 -3z m55 -1265 c153 -27 181 -34 317 -80 424 -141
785 -421 1036 -800 119 -180 240 -468 278 -660 29 -147 40 -234 46 -365 22
-528 -171 -1059 -523 -1439 -43 -47 -61 -60 -78 -56 -11 2 -127 28 -256 55
-129 28 -264 60 -300 70 -36 11 -108 30 -161 44 -118 32 -367 114 -394 130
-11 7 -45 21 -75 31 -30 11 -59 22 -63 26 -4 3 20 12 55 19 346 71 644 323
774 652 56 142 68 211 68 388 0 136 -4 179 -21 245 -88 330 -310 598 -599 723
-153 66 -249 85 -424 85 -143 0 -208 -10 -330 -50 -94 -32 -178 -74 -253 -126
l-58 -40 -48 47 c-27 27 -55 46 -61 44 -14 -4 -16 -1 49 -71 l34 -36 -89 -94
c-172 -182 -260 -380 -284 -638 -11 -119 -8 -159 26 -351 6 -36 6 -37 -27 -40
-46 -4 -39 -22 11 -26 25 -2 40 -8 40 -16 0 -22 114 -239 150 -287 56 -73 195
-204 267 -251 142 -94 248 -134 427 -163 137 -22 133 -11 91 -244 -25 -135
-33 -197 -25 -205 5 -5 11 -8 11 -6 1 3 18 90 38 195 l36 189 44 9 c37 7 52 5
105 -18 33 -15 75 -33 91 -41 44 -19 254 -88 375 -122 201 -58 680 -172 722
-172 30 0 21 -16 -39 -67 -138 -118 -298 -221 -463 -300 -376 -179 -813 -228
-1250 -142 -435 87 -871 359 -1150 720 -208 270 -338 560 -401 899 -20 107
-23 157 -23 350 0 258 10 336 71 563 167 619 675 1152 1284 1347 132 43 331
84 449 94 97 8 418 -4 500 -19z m-184 -980 c384 -54 688 -310 822 -690 84
-240 65 -505 -56 -765 -68 -147 -209 -305 -362 -405 -61 -40 -85 -52 -202
-103 -69 -30 -220 -60 -225 -45 -19 56 -76 79 -121 47 -22 -15 -25 -14 -60 12
-50 38 -161 150 -199 199 -48 64 -100 165 -122 239 -12 38 -19 71 -16 74 3 3
22 -4 43 -16 164 -98 260 -127 397 -119 303 17 531 261 529 567 -2 270 -168
489 -421 554 -126 33 -296 14 -400 -45 -20 -11 -41 -19 -48 -17 -8 2 -79 73
-159 158 -104 111 -142 158 -135 166 12 15 130 85 179 107 110 50 158 63 290
82 116 17 149 17 266 0z m-612 -383 l144 -154 -62 -61 c-95 -96 -145 -199
-165 -339 -11 -78 1 -187 29 -260 15 -39 16 -54 7 -78 l-11 -30 -213 0 c-193
0 -212 2 -217 18 -39 125 -48 344 -20 478 43 211 136 386 280 527 32 32 64 56
72 55 7 -2 77 -72 156 -156z m601 -107 c167 -43 299 -158 361 -316 64 -164 48
-335 -46 -488 -92 -149 -301 -254 -473 -238 -77 7 -186 40 -219 67 -14 10 -28
16 -32 13 -3 -3 -6 -2 -6 4 0 6 -13 16 -29 23 -16 6 -39 22 -51 35 -18 19 -20
27 -10 45 14 27 5 83 -16 101 -29 24 5 138 69 230 36 53 96 101 149 120 51 18
61 6 41 -53 -20 -61 -11 -108 28 -153 55 -62 147 -71 207 -20 40 34 55 75 50
136 -6 62 -31 98 -86 124 -30 14 -42 26 -42 40 0 29 -40 64 -76 68 -23 3 -53
27 -120 96 -49 51 -90 96 -92 100 -4 11 109 60 160 70 70 14 170 12 233 -4z
m-327 -180 l91 -95 -20 -35 c-13 -21 -29 -35 -40 -35 -30 0 -110 -44 -148 -81
-65 -65 -114 -157 -141 -266 -6 -24 -13 -43 -15 -43 -2 0 -13 30 -25 66 -55
181 -3 393 130 526 32 32 63 58 68 58 5 0 51 -43 100 -95z m260 -236 c76 -26
65 -165 -17 -198 -39 -17 -76 -7 -112 29 -23 23 -29 37 -29 72 1 51 14 71 60
91 43 19 59 20 98 6z m-565 -461 c23 -25 37 -55 54 -123 47 -185 160 -349 338
-492 38 -31 39 -32 15 -32 -48 -1 -199 38 -277 70 -187 78 -352 214 -458 378
-50 77 -105 190 -105 216 0 13 28 15 201 15 l201 0 31 -32z" />
<path d="M3279 3451 c-18 -14 -24 -29 -24 -61 0 -50 30 -80 79 -80 67 0 102
88 56 138 -26 28 -79 29 -111 3z" />
</g>
</svg>
